<mxfile host="app.diagrams.net" modified="2021-11-20T12:07:16.532Z" agent="5.0 (Windows NT 10.0; Win64; x64) AppleWebKit/537.36 (KHTML, like Gecko) Chrome/95.0.4638.69 Safari/537.36" etag="PqdiXg532u0KTXw92b8x" version="15.8.3" type="gitlab">
  <diagram id="AVCgjMB4vnnHdktHC23D" name="Page-1">
    <mxGraphModel dx="1564" dy="880" grid="1" gridSize="10" guides="1" tooltips="1" connect="1" arrows="1" fold="1" page="1" pageScale="1" pageWidth="1169" pageHeight="1654" math="0" shadow="0">
      <root>
        <mxCell id="0" />
        <mxCell id="1" parent="0" />
        <mxCell id="Dgi1GJ6ZeWri7rp1ALK4-1" value="Main Menu" style="rounded=0;whiteSpace=wrap;html=1;" vertex="1" parent="1">
          <mxGeometry x="120" y="150" width="120" height="60" as="geometry" />
        </mxCell>
        <mxCell id="Dgi1GJ6ZeWri7rp1ALK4-2" value="" style="endArrow=classic;html=1;rounded=0;entryX=0;entryY=0.5;entryDx=0;entryDy=0;" edge="1" parent="1" target="Dgi1GJ6ZeWri7rp1ALK4-5">
          <mxGeometry width="50" height="50" relative="1" as="geometry">
            <mxPoint x="240" y="179.5" as="sourcePoint" />
            <mxPoint x="400" y="179.5" as="targetPoint" />
            <Array as="points">
              <mxPoint x="240" y="179.5" />
              <mxPoint x="320" y="179.5" />
            </Array>
          </mxGeometry>
        </mxCell>
        <mxCell id="Dgi1GJ6ZeWri7rp1ALK4-3" value="Save system&lt;br&gt;Game Controllers&lt;br&gt;Audio&lt;br&gt;Sound&lt;br&gt;Exit" style="rounded=0;whiteSpace=wrap;html=1;" vertex="1" parent="1">
          <mxGeometry x="120" y="290" width="120" height="150" as="geometry" />
        </mxCell>
        <mxCell id="Dgi1GJ6ZeWri7rp1ALK4-4" value="" style="endArrow=classic;html=1;rounded=0;" edge="1" parent="1">
          <mxGeometry width="50" height="50" relative="1" as="geometry">
            <mxPoint x="179" y="290" as="sourcePoint" />
            <mxPoint x="179" y="210" as="targetPoint" />
            <Array as="points">
              <mxPoint x="179.33" y="280" />
            </Array>
          </mxGeometry>
        </mxCell>
        <mxCell id="Dgi1GJ6ZeWri7rp1ALK4-22" style="edgeStyle=orthogonalEdgeStyle;rounded=0;orthogonalLoop=1;jettySize=auto;html=1;exitX=0;exitY=1;exitDx=0;exitDy=0;entryX=0.921;entryY=-0.028;entryDx=0;entryDy=0;entryPerimeter=0;" edge="1" parent="1" source="Dgi1GJ6ZeWri7rp1ALK4-5" target="Dgi1GJ6ZeWri7rp1ALK4-20">
          <mxGeometry relative="1" as="geometry" />
        </mxCell>
        <mxCell id="Dgi1GJ6ZeWri7rp1ALK4-23" style="edgeStyle=orthogonalEdgeStyle;rounded=0;orthogonalLoop=1;jettySize=auto;html=1;exitX=1;exitY=1;exitDx=0;exitDy=0;entryX=0.164;entryY=-0.043;entryDx=0;entryDy=0;entryPerimeter=0;" edge="1" parent="1" source="Dgi1GJ6ZeWri7rp1ALK4-5" target="Dgi1GJ6ZeWri7rp1ALK4-21">
          <mxGeometry relative="1" as="geometry" />
        </mxCell>
        <mxCell id="Dgi1GJ6ZeWri7rp1ALK4-5" value="PLAY" style="rounded=0;whiteSpace=wrap;html=1;" vertex="1" parent="1">
          <mxGeometry x="440" y="150" width="120" height="60" as="geometry" />
        </mxCell>
        <mxCell id="Dgi1GJ6ZeWri7rp1ALK4-11" style="edgeStyle=orthogonalEdgeStyle;rounded=0;orthogonalLoop=1;jettySize=auto;html=1;exitX=1;exitY=1;exitDx=0;exitDy=0;entryX=0;entryY=0;entryDx=0;entryDy=0;" edge="1" parent="1" source="Dgi1GJ6ZeWri7rp1ALK4-6" target="Dgi1GJ6ZeWri7rp1ALK4-5">
          <mxGeometry relative="1" as="geometry" />
        </mxCell>
        <mxCell id="Dgi1GJ6ZeWri7rp1ALK4-6" value="Initiate world Map&lt;br&gt;" style="rounded=0;whiteSpace=wrap;html=1;" vertex="1" parent="1">
          <mxGeometry x="290" y="30" width="120" height="60" as="geometry" />
        </mxCell>
        <mxCell id="Dgi1GJ6ZeWri7rp1ALK4-12" style="edgeStyle=orthogonalEdgeStyle;rounded=0;orthogonalLoop=1;jettySize=auto;html=1;exitX=0.5;exitY=1;exitDx=0;exitDy=0;entryX=0.597;entryY=-0.031;entryDx=0;entryDy=0;entryPerimeter=0;" edge="1" parent="1" source="Dgi1GJ6ZeWri7rp1ALK4-7" target="Dgi1GJ6ZeWri7rp1ALK4-5">
          <mxGeometry relative="1" as="geometry" />
        </mxCell>
        <mxCell id="Dgi1GJ6ZeWri7rp1ALK4-7" value="load level and enemies" style="rounded=0;whiteSpace=wrap;html=1;" vertex="1" parent="1">
          <mxGeometry x="450" y="30" width="120" height="60" as="geometry" />
        </mxCell>
        <mxCell id="Dgi1GJ6ZeWri7rp1ALK4-13" style="edgeStyle=orthogonalEdgeStyle;rounded=0;orthogonalLoop=1;jettySize=auto;html=1;exitX=0;exitY=1;exitDx=0;exitDy=0;entryX=1;entryY=0;entryDx=0;entryDy=0;" edge="1" parent="1" source="Dgi1GJ6ZeWri7rp1ALK4-8" target="Dgi1GJ6ZeWri7rp1ALK4-5">
          <mxGeometry relative="1" as="geometry" />
        </mxCell>
        <mxCell id="Dgi1GJ6ZeWri7rp1ALK4-8" value="Timer start" style="rounded=0;whiteSpace=wrap;html=1;" vertex="1" parent="1">
          <mxGeometry x="610" y="30" width="120" height="60" as="geometry" />
        </mxCell>
        <mxCell id="Dgi1GJ6ZeWri7rp1ALK4-25" style="edgeStyle=orthogonalEdgeStyle;rounded=0;orthogonalLoop=1;jettySize=auto;html=1;exitX=1;exitY=1;exitDx=0;exitDy=0;entryX=0.094;entryY=-0.046;entryDx=0;entryDy=0;entryPerimeter=0;" edge="1" parent="1" source="Dgi1GJ6ZeWri7rp1ALK4-20" target="Dgi1GJ6ZeWri7rp1ALK4-24">
          <mxGeometry relative="1" as="geometry" />
        </mxCell>
        <mxCell id="Dgi1GJ6ZeWri7rp1ALK4-20" value="Win State" style="rounded=0;whiteSpace=wrap;html=1;" vertex="1" parent="1">
          <mxGeometry x="330" y="380" width="120" height="60" as="geometry" />
        </mxCell>
        <mxCell id="Dgi1GJ6ZeWri7rp1ALK4-26" style="edgeStyle=orthogonalEdgeStyle;rounded=0;orthogonalLoop=1;jettySize=auto;html=1;exitX=0;exitY=1;exitDx=0;exitDy=0;entryX=0.834;entryY=-0.002;entryDx=0;entryDy=0;entryPerimeter=0;" edge="1" parent="1" source="Dgi1GJ6ZeWri7rp1ALK4-21" target="Dgi1GJ6ZeWri7rp1ALK4-24">
          <mxGeometry relative="1" as="geometry" />
        </mxCell>
        <mxCell id="Dgi1GJ6ZeWri7rp1ALK4-21" value="Lose state" style="rounded=0;whiteSpace=wrap;html=1;" vertex="1" parent="1">
          <mxGeometry x="540" y="380" width="120" height="60" as="geometry" />
        </mxCell>
        <mxCell id="Dgi1GJ6ZeWri7rp1ALK4-24" value="Victory/Loss screen&lt;br&gt;" style="rounded=0;whiteSpace=wrap;html=1;" vertex="1" parent="1">
          <mxGeometry x="440" y="550" width="120" height="60" as="geometry" />
        </mxCell>
        <mxCell id="Dgi1GJ6ZeWri7rp1ALK4-27" value="" style="curved=1;endArrow=classic;html=1;rounded=0;exitX=0.5;exitY=1;exitDx=0;exitDy=0;entryX=0;entryY=0.5;entryDx=0;entryDy=0;" edge="1" parent="1" source="Dgi1GJ6ZeWri7rp1ALK4-24" target="Dgi1GJ6ZeWri7rp1ALK4-1">
          <mxGeometry width="50" height="50" relative="1" as="geometry">
            <mxPoint x="460" y="700" as="sourcePoint" />
            <mxPoint x="70" y="170" as="targetPoint" />
            <Array as="points">
              <mxPoint x="510" y="700" />
              <mxPoint x="430" y="680" />
              <mxPoint x="40" y="620" />
              <mxPoint x="50" y="350" />
            </Array>
          </mxGeometry>
        </mxCell>
      </root>
    </mxGraphModel>
  </diagram>
</mxfile>
